<svg xmlns="http://www.w3.org/2000/svg" viewBox="0 0 410 404"><path fill="#41D1FF" d="M399.641 59.525 215.028 388.496c-3.732 6.568-13.323 6.567-17.054-.002L9.357 59.525C4.932 51.735 10.233 42 19.173 42h371.654c8.94 0 14.241 9.735 9.816 17.525Z"/><path fill="#BD34FE" d="M292.598 1.584 156.911 275.391a8.57 8.57 0 0 1-15.345-.006L74.994 161.922a8.57 8.57 0 0 1 7.596-12.463l80.829-1.786a8.57 8.57 0 0 0 7.472-4.602l62.858-119.13c3.787-7.185 14.317-6.553 17.019.999l29.274 83.502a8.57 8.57 0 0 0 8.149 5.669l53.073-.853c7.694-.124 12.517 8.12 8.585 14.92Z"/><path fill="#FFF" d="M210.483 137.119 168.68 214.71a4.285 4.285 0 0 0 3.102 6.207l36.597 5.73c3.014.472 5.068 3.392 4.502 6.383l-10.922 58.744c-.833 4.482 5.458 6.936 8.022 3.093l1.025-1.54 67.57-123.394c1.98-3.616-.88-7.926-5.032-7.555l-38.411 3.38c-3.245.285-5.79-2.774-5.049-5.952l11.736-50.19c1.023-4.374-4.821-6.87-7.502-3.277Z"/></svg>
